<svg xmlns="http://www.w3.org/2000/svg" xmlns:xlink="http://www.w3.org/1999/xlink" width="469.086" height="325.49" viewBox="0 0 469.086 325.49"><defs><style>.a{opacity:0.141;}.b{fill:#2d6dcd;}.c{fill:#154489;}.aa,.d,.f,.q,.v,.x{fill:#fff;}.d{opacity:0.126;}.e{opacity:0.13;}.g{fill:url(#a);}.h{fill:url(#b);}.i{fill:url(#d);}.j{fill:url(#e);}.k{fill:#fd897b;}.l{fill:#1a2e35;}.ac,.m,.r,.t{fill:none;}.m,.t{stroke:#1a2e35;stroke-linecap:round;stroke-linejoin:round;}.m{stroke-width:0.488px;}.n{fill:#007cff;}.o{opacity:0.3;}.o,.p,.q,.z{isolation:isolate;}.p,.x,.y{opacity:0.2;}.q,.v{opacity:0.6;}.r{stroke:#007cff;stroke-miterlimit:10;}.s{fill:#fd5652;}.t{stroke-width:0.708px;}.u{fill:#cc7a63;}.w{fill:#3f3d56;}.aa,.z{opacity:0.1;}.ab{fill:#b84d3c;}.ac{stroke:#2d6dcd;stroke-dasharray:4;}</style><linearGradient id="a" x1="0.931" y1="0.5" x2="0" y2="0.5" gradientUnits="objectBoundingBox"><stop offset="0" stop-color="#fff" stop-opacity="0.596"/><stop offset="1" stop-color="#fff"/></linearGradient><linearGradient id="b" x1="0.931" y1="0.5" x2="0" y2="0.5" gradientUnits="objectBoundingBox"><stop offset="0" stop-color="#fff" stop-opacity="0.6"/><stop offset="1" stop-color="#fff"/></linearGradient><linearGradient id="d" x1="0.931" y1="0.5" x2="0.003" y2="0.5" gradientUnits="objectBoundingBox"><stop offset="0" stop-color="#fff"/><stop offset="1" stop-color="#fff" stop-opacity="0.6"/></linearGradient><linearGradient id="e" x1="1" y1="0.5" x2="0" y2="0.5" gradientUnits="objectBoundingBox"><stop offset="0" stop-color="#fff"/><stop offset="0.497" stop-color="#fff" stop-opacity="0.561"/><stop offset="1" stop-color="#fff"/></linearGradient></defs><g transform="translate(-665.914 -3867)"><g class="a" transform="translate(745.707 3783.067)"><path class="b" d="M226.92,180.411c88.94-31.323,180.363,12.083,125.166,109.223-53.693,94.492,25.365,119.531,25.365,119.531L54.1,407.417C-11.706,383.605-67.7,280.078-6.11,247.517c0,0,39.185-7.542,42.7-34.887s-12.065-49.775,13.072-66.964S117.079,133.2,156.247,166.7C186.411,192.494,226.92,180.411,226.92,180.411Z"/></g><g transform="translate(712.734 4170.468)"><g transform="translate(0)"><rect class="c" width="83" height="22" rx="4" transform="translate(0.266 -0.468)"/><rect class="d" width="14" height="22" transform="translate(12.266 -0.468)"/><rect class="d" width="4" height="22" transform="translate(44.266 -0.468)"/><rect class="d" width="4" height="22" transform="translate(51.266 -0.468)"/><g class="e"><path class="f" d="M3.19,0H79.747c1.762,0,3.19.631,3.19,2.392v.8H0v-.8C0,.631,1.428,0,3.19,0Z"/><rect class="d" width="14" height="4" transform="translate(12.266 -0.468)"/><rect class="d" width="4" height="4" transform="translate(44.266 -0.468)"/><rect class="d" width="4" height="4" transform="translate(51.266 -0.468)"/></g></g></g><g transform="translate(706.506 4149.937)"><rect class="c" width="82" height="21" rx="4" transform="translate(0.494 0.063)"/><rect class="d" width="14" height="21" transform="translate(12.494 0.063)"/><rect class="d" width="4" height="21" transform="translate(43.494 0.063)"/><rect class="d" width="4" height="21" transform="translate(51.494 0.063)"/><g class="e"><path class="f" d="M3.19,0H79.747c1.762,0,3.19.631,3.19,2.392v.8H0v-.8C0,.631,1.428,0,3.19,0Z"/><rect class="d" width="14" height="4" transform="translate(12.494 0.063)"/><rect class="d" width="4" height="4" transform="translate(43.494 0.063)"/><rect class="d" width="4" height="4" transform="translate(51.494 0.063)"/></g></g><g transform="translate(717 4128)"><g transform="translate(0)"><rect class="c" width="83" height="22" rx="4"/><rect class="d" width="13" height="22" transform="translate(13)"/><rect class="d" width="4" height="22" transform="translate(44)"/><rect class="d" width="4" height="22" transform="translate(51)"/><g class="e"><path class="f" d="M3.19,0H79.747c1.762,0,3.19.631,3.19,2.392v.8H0v-.8C0,.631,1.428,0,3.19,0Z"/><rect class="d" width="13" height="4" transform="translate(13)"/><rect class="d" width="4" height="4" transform="translate(44)"/><rect class="d" width="4" height="4" transform="translate(51)"/></g></g></g><g transform="translate(29.167 97)"><g transform="translate(834.833 4010)"><circle class="c" cx="36" cy="36" r="36" transform="translate(1 2)"/><circle class="b" cx="36" cy="36" r="36" transform="translate(0)"/></g><g transform="translate(847.715 4026.914)"><g transform="translate(0 0)"><g transform="translate(3.653 9.631)"><path class="g" d="M10.711,21.421A10.711,10.711,0,1,0,0,10.711,10.711,10.711,0,0,0,10.711,21.421Zm0-2.192a8.519,8.519,0,1,1,8.519-8.519A8.519,8.519,0,0,1,10.711,19.229Z" transform="translate(0 0)"/><path class="h" d="M10.711,0A10.711,10.711,0,1,1,0,10.711,10.711,10.711,0,0,1,10.711,0Zm0,2.192a8.519,8.519,0,1,0,8.519,8.519A8.519,8.519,0,0,0,10.711,2.192Z" transform="translate(40.617 21.421) rotate(180)"/></g><g transform="translate(13.218)"><path class="h" d="M10.711,21.421A10.711,10.711,0,1,0,0,10.711,10.711,10.711,0,0,0,10.711,21.421Zm0-2.192a8.519,8.519,0,1,1,8.519-8.519A8.519,8.519,0,0,1,10.711,19.229Z" transform="translate(21.421) rotate(90)"/><path class="i" d="M10.711,0A10.711,10.711,0,1,1,0,10.711,10.711,10.711,0,0,1,10.711,0Zm0,2.192a8.519,8.519,0,1,0,8.519,8.519A8.519,8.519,0,0,0,10.711,2.192Z" transform="translate(21.421 19.196) rotate(90)"/></g><rect class="j" width="47.924" height="2.192" transform="translate(0 19.196)"/></g></g></g><g transform="translate(-166.833 -78)"><g transform="translate(834.833 4010)"><circle class="c" cx="19" cy="19" r="19" transform="translate(1 1)"/><circle class="b" cx="19" cy="19" r="19" transform="translate(0)"/></g><g transform="translate(841.656 4018.959)"><g transform="translate(0 0)"><g transform="translate(1.935 5.101)"><path class="g" d="M5.673,11.346A5.673,5.673,0,1,0,0,5.673,5.673,5.673,0,0,0,5.673,11.346Zm0-1.161a4.512,4.512,0,1,1,4.512-4.512A4.512,4.512,0,0,1,5.673,10.185Z" transform="translate(0 0)"/><path class="h" d="M5.673,0A5.673,5.673,0,1,1,0,5.673,5.673,5.673,0,0,1,5.673,0Zm0,1.161a4.512,4.512,0,1,0,4.512,4.512A4.512,4.512,0,0,0,5.673,1.161Z" transform="translate(21.514 11.346) rotate(180)"/></g><g transform="translate(7.001)"><path class="h" d="M5.673,11.346A5.673,5.673,0,1,0,0,5.673,5.673,5.673,0,0,0,5.673,11.346Zm0-1.161a4.512,4.512,0,1,1,4.512-4.512A4.512,4.512,0,0,1,5.673,10.185Z" transform="translate(11.346) rotate(90)"/><path class="i" d="M5.673,0A5.673,5.673,0,1,1,0,5.673,5.673,5.673,0,0,1,5.673,0Zm0,1.161a4.512,4.512,0,1,0,4.512,4.512A4.512,4.512,0,0,0,5.673,1.161Z" transform="translate(11.346 10.168) rotate(90)"/></g><rect class="j" width="25.384" height="1.161" transform="translate(0 10.168)"/></g></g></g><g transform="translate(276.167 -143)"><g transform="translate(834.833 4010)"><circle class="c" cx="11.5" cy="11.5" r="11.5" transform="translate(1 1)"/><circle class="b" cx="11.5" cy="11.5" r="11.5"/></g><g transform="translate(838.978 4015.442)"><g transform="translate(0 0)"><g transform="translate(1.175 3.099)"><path class="g" d="M3.446,6.892A3.446,3.446,0,1,0,0,3.446,3.446,3.446,0,0,0,3.446,6.892Zm0-.705A2.741,2.741,0,1,1,6.187,3.446,2.741,2.741,0,0,1,3.446,6.187Z" transform="translate(0 0)"/><path class="h" d="M3.446,0A3.446,3.446,0,1,1,0,3.446,3.446,3.446,0,0,1,3.446,0Zm0,.705A2.741,2.741,0,1,0,6.187,3.446,2.741,2.741,0,0,0,3.446.705Z" transform="translate(13.069 6.892) rotate(180)"/></g><g transform="translate(4.253)"><path class="h" d="M3.446,6.892A3.446,3.446,0,1,0,0,3.446,3.446,3.446,0,0,0,3.446,6.892Zm0-.705A2.741,2.741,0,1,1,6.187,3.446,2.741,2.741,0,0,1,3.446,6.187Z" transform="translate(6.892) rotate(90)"/><path class="i" d="M3.446,0A3.446,3.446,0,1,1,0,3.446,3.446,3.446,0,0,1,3.446,0Zm0,.705A2.741,2.741,0,1,0,6.187,3.446,2.741,2.741,0,0,0,3.446.705Z" transform="translate(6.892 6.176) rotate(90)"/></g><rect class="j" width="15.42" height="0.705" transform="translate(0 6.176)"/></g></g></g><g transform="translate(393.996 3323.438)"><path class="k" d="M473.728,617.512l.5-7.541s-1.8-2.209-1.662-3.5,3.238-8.436,4.281-8.681,6.2,2.914,6.125,4.568-3.64,7.444-4.193,7.86l-.044,8.064Z"/><path class="l" d="M405.719,593.984c-4.562,1.275-6.917,9.583-4.75,25.083s-3.833,36.083-3.833,36.083,24.916,7.75,40.583-2.166-6.667-29.584-6.667-29.584,9.084,6.167,12.167,14.5a8.044,8.044,0,0,0,.5-4.583,29.87,29.87,0,0,0-8.5-10.417c-6.167-4.916-1-16.5-5.333-22.75S423.3,589.067,405.719,593.984Z"/><path class="m" d="M430.969,609.484s-.5,9,2.667,11.166,9.75,3.917,11.916,8.084"/><path class="n" d="M435.564,631.193c9.155.674,27.155,15.149,32.155,16.149s5.667-34.29,5.667-34.29h7.333s-1.333,38.73-6.667,43.015-39.389-8.69-39.389-8.69Z"/><path class="o" d="M480.719,613.052s-1.33,38.726-6.67,43.016c-3.48,2.8-19.21-1.777-29.71-5.267-3.89-1.3-7.06-2.459-8.62-3.029l-1.06-.4.91-16.172c9.15.67,27.15,15.143,32.15,16.143s5.67-34.287,5.67-34.287Z"/><path class="n" d="M472.719,612.052h8l.875,3h-8.875Z"/><path class="p" d="M444.339,650.784c-3.89-1.3-7.06-2.45-8.62-3.02V640.6S442.009,644.954,444.339,650.784Z"/><path class="k" d="M425.834,819.754c-6.38,8.02-12.115,15.3-17.115,20.6v.01c-5,5.37-7.575,8.7-7.575,8.7l-4.947-2.84s4.571-7.23,10.771-17.2c5.27-8.46,11.725-18.9,17.586-28.57,7.579-12.5,14.162-23.71,15.9-27.72,1.24-2.85-2.118-13.8-5.828-24.12-3.77-10.51-7.91-20.38-7.91-20.38l13.491-22.85s5.49,15.21,10.37,31.26c3.21,10.5,6.127,21.37,7.117,28.59C459.076,775.314,441.674,799.824,425.834,819.754Z"/><path class="p" d="M425.879,819.754c-6.38,8.02-12.51,15.3-17.07,20.6-.65-3.26-1.31-7.12-1.83-11.33,5.27-8.46,11.72-18.9,17.58-28.57A110.642,110.642,0,0,0,425.879,819.754Z"/><path class="p" d="M450.579,736.644l-15.95,11.97c-3.77-10.51-7.91-20.38-7.91-20.38l13.49-22.85S445.7,720.594,450.579,736.644Z"/><path class="k" d="M422.719,860.734l-5.75.75s-8.25-40.61-8-74.12a285.8,285.8,0,0,1-7.16-33.73c-2.02-13.72-3.02-29-.34-40.4l20,9,.41,30,.34,25Z"/><path class="p" d="M421.879,752.234l-20.07,1.4c-2.02-13.72-3.02-29-.34-40.4l20,9Z"/><path class="l" d="M396.528,843.07c.589-.429,5.568,7.031,5.568,7.031s-1.108,7.775,1.138,12.79-2.118,4.588-5.747-.163l-8.976-11.753C385.932,847.6,390.419,847.513,396.528,843.07Z"/><path class="n" d="M403.784,855.73c-1.131-.265-1.865-3.489-2-4.133a.225.225,0,0,1,0-.093h0a.242.242,0,0,1,.027-.072h0a.219.219,0,0,1,.049-.06h0a.229.229,0,0,1,.082-.045c.1-.033,2.208-.7,3.344-.041a1.371,1.371,0,0,1,.678.939c.094.442.013.753-.241.925-.391.263-1.153.043-1.9-.3a3.67,3.67,0,0,1,1.043,1.728.954.954,0,0,1-.191.747.935.935,0,0,1-.729.426A.669.669,0,0,1,403.784,855.73Zm.108-.459c.046.011.186.045.412-.241a.5.5,0,0,0,.093-.393c-.1-.738-1.211-1.819-2-2.48C402.757,853.544,403.361,855.146,403.892,855.271Zm-1.3-3.631c1.2.748,2.533,1.344,2.869,1.116.1-.07.071-.3.043-.435a.906.906,0,0,0-.452-.629,2.193,2.193,0,0,0-1.079-.228A6.444,6.444,0,0,0,402.591,851.64Z"/><path class="l" d="M414.929,857.848c.018-.729,8.968-.175,8.968-.175s5.506,5.627,10.855,6.885,2.36,4.494-3.618,4.494H416.345C412.1,869.052,414.752,865.4,414.929,857.848Z"/><path class="n" d="M424.9,858.813a.23.23,0,0,1-.074-.056h0a.3.3,0,0,1-.041-.064h0a.2.2,0,0,1-.017-.074h0a.231.231,0,0,1,.014-.095c.038-.107.789-2.179,2-2.682a1.379,1.379,0,0,1,1.158.032c.408.193.606.446.589.752-.027.471-.665.943-1.393,1.331a3.689,3.689,0,0,1,2.007.22.959.959,0,0,1,.478.605.859.859,0,0,1-.216.954,1.236,1.236,0,0,1-.79.215A11.234,11.234,0,0,1,424.9,858.813Zm.819-.15c1.32.559,2.959,1.052,3.381.7.037-.031.148-.122.059-.473a.5.5,0,0,0-.256-.313,2.231,2.231,0,0,0-1.055-.2A10.627,10.627,0,0,0,425.715,858.663Zm1.24-2.389a3.9,3.9,0,0,0-1.534,1.923c1.325-.5,2.6-1.2,2.628-1.6.007-.125-.2-.242-.32-.3a.948.948,0,0,0-.412-.1A.931.931,0,0,0,426.955,856.274Z"/><path class="n" d="M430.763,742.984l21.625-11.334c-6.8-20.673-12.937-32.4-12.937-32.4-21.26,3.641-19.318,20.446-19.318,20.446S425.549,730.914,430.763,742.984Z"/><path class="q" d="M429.372,739.795c.461,1.05.924,2.118,1.386,3.189l21.628-11.334c-6.8-20.672-12.933-32.4-12.933-32.4-13.121,2.256-17.406,9.515-18.765,14.745a17.167,17.167,0,0,0-.557,5.7S424.624,729.015,429.372,739.795Z"/><path class="p" d="M429.372,739.795c-4.748-10.78-9.241-20.1-9.241-20.1a17.167,17.167,0,0,1,.557-5.7,6.857,6.857,0,0,1,2.218-.935S428.683,722.133,429.372,739.795Z"/><path class="n" d="M424.063,747.65l-.746-34.588,17.144-5.005s-1.347-15.87-3.349-23.7c0,0-27.846-6.932-32.094,2.507-.019.038-.038.153-.057.2l-.066.089s-8,14.071-5.611,60.492Z"/><path class="q" d="M424.063,747.65l-.746-34.588,17.144-5.005s-1.347-15.87-3.349-23.7c0,0-27.846-6.932-32.094,2.507-.019.038-.038.153-.057.2l-.066.089s-8,14.071-5.611,60.492Z"/><path class="l" d="M404.719,682.081v4.72l32-2.472v-5.582Z"/><rect class="n" width="1.601" height="8.156" transform="translate(413.96 680.178) rotate(-2.922)"/><rect class="f" width="7.077" height="5.367" transform="translate(422.472 680.529) rotate(-5.117)"/><rect class="n" width="1.601" height="8.156" transform="translate(433.656 678.016) rotate(-2.922)"/><rect class="q" width="1.601" height="8.156" transform="translate(413.96 680.178) rotate(-2.922)"/><rect class="q" width="1.601" height="8.156" transform="translate(433.656 678.016) rotate(-2.922)"/><path class="n" d="M437.112,679.31l-32.245,2.79c-.765-11.988-1.529-19.719-8.628-41.08q-.92-2.8-2.01-5.947a95.811,95.811,0,0,1,13.375-3.228,103.588,103.588,0,0,1,14.481-1.53c6.277-.047,13.479.661,13.479.661s1.029.246,1.671,6.891C437.83,644.116,438.406,656.6,437.112,679.31Z"/><path class="o" d="M437.109,679.314l-32.24,2.79a115.88,115.88,0,0,0-3.6-24.37c-.83-3.22-1.87-6.84-3.19-11.04-.56-1.78-1.17-3.66-1.84-5.67-.61-1.87-1.28-3.86-2.01-5.95a95.863,95.863,0,0,1,13.38-3.23,103.352,103.352,0,0,1,14.48-1.53c6.27-.05,13.48.66,13.48.66s1.02.25,1.67,6.89C437.829,644.114,438.409,656.6,437.109,679.314Z"/><path class="n" d="M397.219,746.234l28.25-.25-.5,4.25-26.5-.25Z"/><path class="n" d="M428.969,742.734l23.5-12.75,1.25,3.75-22.75,11.25Z"/><path class="r" d="M415.6,630.748s-8.879-.347-8.379,4.194,22.153,17.708,22.153,17.708S428.411,628.718,415.6,630.748Z"/><path class="k" d="M419.429,637.444c-7.95-1.02-10.34-4.42-10.34-4.42,3.25-3.06,2.66-7.58,1.83-10.4a16.163,16.163,0,0,0-.98-2.6l9.57,1.79a27.535,27.535,0,0,0-.37,4.03,12.065,12.065,0,0,0,.27,2.96c.65,2.86,2.28,2.9,2.28,2.9C423.369,634.844,419.429,637.444,419.429,637.444Z"/><path class="p" d="M419.139,625.844a12.065,12.065,0,0,0,.27,2.96c-3.8-.5-6.68-3.54-8.49-6.18a16.163,16.163,0,0,0-.98-2.6l9.57,1.79A27.535,27.535,0,0,0,419.139,625.844Z"/><path class="k" d="M417.559,595.317c8.322.308,10.835,4.863,11.127,13.462.364,10.745-2.294,18.271-12.615,15.6C402.055,620.742,403.739,594.8,417.559,595.317Z"/><path class="s" d="M423.324,608.114a17.6,17.6,0,0,0,2.293,3.541,2.287,2.287,0,0,1-2.228.86Z"/><path class="l" d="M418.255,607.245c-.009.684-.386,1.233-.843,1.227s-.818-.566-.808-1.25.386-1.234.842-1.228S418.265,606.56,418.255,607.245Z"/><path class="l" d="M417.256,606.025l1.5-.563S417.994,606.7,417.256,606.025Z"/><path class="l" d="M426.763,607.219c-.01.684-.387,1.233-.843,1.227s-.818-.566-.809-1.25.387-1.234.843-1.227S426.772,606.534,426.763,607.219Z"/><path class="l" d="M425.763,606l1.5-.563S426.5,606.678,425.763,606Z"/><path class="t" d="M418.385,601.495a4.336,4.336,0,0,0-3.656,1.124"/><path class="t" d="M424.447,601.367a3.887,3.887,0,0,1,3.291.808"/><path class="l" d="M422.054,615.744a20.983,20.983,0,0,0-1.078,2.854c-.179-.02-.357-.04-.534-.069-2.413-.335-3.422-1.288-3.809-2.242a3.148,3.148,0,0,1-.185-1.476,3.033,3.033,0,0,1,.186-.83,11.471,11.471,0,0,0,4.6,1.636C421.734,615.71,422.054,615.744,422.054,615.744Z"/><path class="f" d="M421.233,615.617l-.34.834c-2.272-.321-3.829-.852-4.445-1.64a3.033,3.033,0,0,1,.186-.83A11.471,11.471,0,0,0,421.233,615.617Z"/><path class="s" d="M420.442,618.529c-2.413-.335-3.422-1.288-3.809-2.242a7.832,7.832,0,0,1,2.606.9A2.937,2.937,0,0,1,420.442,618.529Z"/><path class="l" d="M407.944,609.005s4.145-6.693,3.751-11.993c0,0,16.741-6.126,16.934,10.643,0,0,2.163-14.8-12.131-15.665-14.27-.86-15.008,20.07-7.852,26.579C408.646,618.569,405.378,613.192,407.944,609.005Z"/><path class="k" d="M409.238,610.812a3.653,3.653,0,0,0-3.806-3.481c-2.589.185-4.015,5.434,2.352,6.945C408.7,614.493,409.251,613.612,409.238,610.812Z"/><path class="l" d="M412.886,589.817c4.5-1.25,16.5-1.417,19.333,11l-1.667.833a26.6,26.6,0,0,0-9-2.666,20.622,20.622,0,0,0-2.333-3.334,18.528,18.528,0,0,1,0,3.167s-7.828,1.147-11.333,4.333c-5.5,5-5.834,8.167-5.834,8.167S398.238,593.886,412.886,589.817Z"/><path class="m" d="M412.219,590.734s16.083-5.584,21.167,9.666"/><circle class="f" cx="2.646" cy="2.646" r="2.646" transform="translate(428.295 651.61)"/><path class="p" d="M401.269,657.734c-.83-3.22-1.87-6.84-3.19-11.04l1.36-2.84S402.969,652.124,401.269,657.734Z"/><path class="k" d="M352.469,617.949l-2.765-7.034s1.043-2.651.52-3.839-5.648-7.053-6.716-6.97-5.021,4.66-4.448,6.213,5.73,5.986,6.383,6.214l2.493,7.67Z"/><path class="n" d="M394.229,635.073c-4.26,1.161-21.01,17.411-23.76,17.411s-18.25-37.268-18.25-37.268l-5.25,3.313s10.75,41.705,17.25,45.205,35.319-12.246,35.319-12.246.428-8.081-.821-11.793A7.242,7.242,0,0,0,394.229,635.073Z"/><path class="o" d="M394.229,635.073c-4.26,1.161-21.01,17.411-23.76,17.411s-18.25-37.268-18.25-37.268l-5.25,3.313s10.75,41.705,17.25,45.205,35.319-12.246,35.319-12.246.428-8.081-.821-11.793A7.242,7.242,0,0,0,394.229,635.073Z"/><path class="n" d="M345.736,618.282l6.733-4.3,1.738,2.47-7.239,4.533Z"/><path class="u" d="M581.052,608.507s-25.959,24.526-37.982,28.627-42.851,19.29-42.851,19.29l-4.732-3.728c-.021-.215-3.453,2.459-3.492,4.3-.028,1.341,3.391,12.574,4.1,12.567,3.3-.032,6.953-7.559,6.953-7.559s39.5-10.3,46.581-13.4,36.253-25.859,36.253-25.859Z"/><path class="n" d="M586.814,602.617c-7.6,1.89-17.345,15.188-17.345,15.188l7,12.426,11.333-4.224Z"/><path class="v" d="M587.8,626.007l-10,3.72-1.33.5-7-12.42s9.75-13.3,17.34-15.19l.46,10.85Z"/><path class="n" d="M569.469,615.507l8.25,14.725-2.833,2.069-6.765-14.646Z"/><path class="p" d="M587.8,626.007l-10,3.72c.92-8.08,7.54-14.53,9.47-16.26Z"/><path class="u" d="M588.179,861.369l-8.368.884-1.57-18.047,8.367-.884Z"/><path class="u" d="M629.93,860.759h-8.107l-.67-18.782h8.117Z"/><path class="l" d="M620.7,859.82h9.85a.712.712,0,0,1,.691.557l1.6,7.22a1.2,1.2,0,0,1-.923,1.419,1.169,1.169,0,0,1-.264.025c-3.187-.051-5.507-.247-9.509-.247-2.465,0-9.9.258-13.306.258s-3.847-3.363-2.455-3.672c6.251-1.362,10.954-3.249,12.955-5.044A1.963,1.963,0,0,1,620.7,859.82Z"/><path class="n" d="M618.017,861.244a2.422,2.422,0,0,1-1.557-.413,1.132,1.132,0,0,1-.4-1.031.578.578,0,0,1,.33-.537c.9-.464,3.518,1.145,3.806,1.331a.176.176,0,0,1,.093.186.2.2,0,0,1-.144.165A9.714,9.714,0,0,1,618.017,861.244Zm-1.207-1.681a.432.432,0,0,0-.247.051c-.052,0-.114.072-.124.227a.793.793,0,0,0,.258.691,3.94,3.94,0,0,0,2.888.145A7.841,7.841,0,0,0,616.81,859.563Z"/><path class="n" d="M620.09,860.955H620c-.835-.454-2.454-2.238-2.289-3.094a.629.629,0,0,1,.618-.506,1.034,1.034,0,0,1,.815.248c.939.763,1.135,3.094,1.145,3.208a.207.207,0,0,1-.093.175A.171.171,0,0,1,620.09,860.955Zm-1.629-3.29h-.093c-.248,0-.268.144-.279.2-.1.526.928,1.877,1.764,2.506a4.546,4.546,0,0,0-.959-2.537A.655.655,0,0,0,618.461,857.665Z"/><path class="l" d="M578.926,859.563h9.85a.71.71,0,0,1,.691.557l1.6,7.22a1.2,1.2,0,0,1-.923,1.418,1.229,1.229,0,0,1-.263.026c-3.188-.052-5.508-.248-9.51-.248-2.465,0-9.9.258-13.306.258s-3.847-3.363-2.454-3.672c6.25-1.361,10.953-3.249,12.954-5.044A1.959,1.959,0,0,1,578.926,859.563Z"/><path class="n" d="M576.244,860.986a2.424,2.424,0,0,1-1.557-.413,1.132,1.132,0,0,1-.4-1.031.578.578,0,0,1,.33-.536c.9-.465,3.518,1.145,3.806,1.33a.174.174,0,0,1,.093.186.2.2,0,0,1-.144.165A9.714,9.714,0,0,1,576.244,860.986Zm-1.207-1.681a.44.44,0,0,0-.247.051c-.052,0-.114.072-.124.227a.793.793,0,0,0,.258.691,3.94,3.94,0,0,0,2.888.145A7.841,7.841,0,0,0,575.037,859.3Z"/><path class="n" d="M578.317,860.7h-.093c-.835-.454-2.454-2.238-2.289-3.094a.63.63,0,0,1,.619-.506,1.033,1.033,0,0,1,.814.248c.939.763,1.135,3.094,1.145,3.208a.207.207,0,0,1-.093.175A.173.173,0,0,1,578.317,860.7Zm-1.629-3.29h-.093c-.248,0-.268.144-.279.2-.1.526.929,1.877,1.764,2.506a4.548,4.548,0,0,0-.959-2.537A.66.66,0,0,0,576.688,857.407Z"/><path class="p" d="M586.608,843.322l-8.367.884.817,9.308,8.368-.884Z"/><path class="p" d="M629.27,841.987h-8.117l.351,9.685h8.117Z"/><path class="b" d="M625.922,677.23H582.887c-4.092,22.344-16.9,101.413-7.711,171.865l14.569-1.807s-1.348-93.527,11.515-128.1c1.479,18.5,3.236,38.193,4.762,48.67,3.744,25.786,11.758,82.139,11.758,82.139h14.832s-3.033-53.94-4.435-79.282C626.644,743.2,625.982,682.88,625.922,677.23Z"/><path class="p" d="M601.256,719.12a115.238,115.238,0,0,0-4.806,18.617c-1.2-16.466,3.61-33.93,3.61-33.93Z"/><path class="n" d="M573.51,852.489l18.032-2.683-.551-4.994-18.758,2.462Z"/><path class="q" d="M573.51,852.489l18.032-2.683-.551-4.994-18.758,2.462Z"/><path class="n" d="M616,850.115h17.493v-5.229l-18.153-.34Z"/><path class="q" d="M616,850.115h17.493v-5.229l-18.153-.34Z"/><path class="n" d="M586.814,602.617s27.375-1.332,47.77,3.816c0,0-6.957,62.324-6.615,88.324l-50.25-1.75S579.7,629.229,586.814,602.617Z"/><path class="v" d="M634.579,606.437s-.81,7.27-1.87,17.88c-1.06,10.69-2.37,24.77-3.33,38.22-.9,12.29-1.52,24.05-1.41,32.22l-50.25-1.75s1.99-63.78,9.09-90.39C586.809,602.617,614.189,601.287,634.579,606.437Z"/><path class="w" d="M494.185,641.556l.219-.011-.018-.038h.032l-.006-.062Z"/><path class="w" d="M579.121,630l-.783.048H522.053l-27.169,11h-.466l4.968,52h53.523l30.019-12.033Z"/><path class="x" d="M500.938,645.136l2.18,2.016,2.9-.653-1.244,2.7,1.517,2.553-2.949-.349-1.96,2.231-.579-2.913-2.728-1.174,2.591-1.451Z"/><path class="x" d="M531.416,649.414l-.2,2.963,2.328,1.844-2.88.726-1.035,2.784-1.58-2.515-2.967-.124,1.9-2.28-.8-2.86,2.756,1.105Z"/><path class="x" d="M530.416,681.414l-.2,2.963,2.328,1.844-2.88.726-1.035,2.784-1.58-2.515-2.967-.124,1.9-2.28-.8-2.86,2.756,1.105Z"/><path class="x" d="M517.416,673.414l-.2,2.963,2.328,1.844-2.88.726-1.035,2.784-1.58-2.515-2.967-.124,1.9-2.28-.8-2.86,2.756,1.105Z"/><path class="x" d="M532.209,672.429l-.117,1.735,1.363,1.08-1.687.425-.606,1.63-.925-1.473-1.738-.073,1.115-1.335-.468-1.675,1.614.648Z"/><path class="x" d="M507.209,684.429l-.117,1.735,1.363,1.08-1.687.425-.606,1.63-.925-1.473-1.738-.073,1.115-1.335-.468-1.675,1.614.648Z"/><path class="x" d="M505.209,667.429l-.117,1.735,1.363,1.08-1.687.425-.606,1.63-.925-1.473-1.738-.073,1.115-1.335-.468-1.675,1.614.648Z"/><path class="x" d="M542.209,642.429l-.117,1.735,1.363,1.08-1.687.425-.606,1.63-.925-1.473-1.738-.073,1.115-1.335-.468-1.675,1.614.648Z"/><path class="x" d="M510.759,654.256l1.739,3.523,3.888.565-2.813,2.742.664,3.872-3.477-1.828-3.477,1.828.664-3.872-2.813-2.742,3.888-.565Z"/><path class="x" d="M536.427,661.42l3.554,1.674,3.394-1.979-.494,3.9,2.931,2.616-3.859.735-1.583,3.6-1.891-3.443-3.909-.394,2.69-2.863Z"/><path class="x" d="M543.759,678.256l1.739,3.523,3.888.565-2.813,2.742.664,3.872-3.477-1.828-3.477,1.828.664-3.872-2.813-2.742,3.888-.565Z"/><path class="x" d="M553.491,643.351l1.24,1.735,1.45-1.021-.479,2.851.931,2.356-1.536.027-.875,2.477-.47-2.834-1.471-.825,1.246-1.778Z"/><path class="x" d="M569.407,643.741l.073,2.983,1.305,1.545-1.437,1.091-.367,2.911-.961-2.309-1.532.254.843-2.518-.58-2.753,1.482.753Z"/><path class="x" d="M570.791,675.812l.073,2.983,1.306,1.545-1.437,1.091-.367,2.911-.961-2.309-1.532.254.843-2.518-.58-2.753,1.482.753Z"/><path class="x" d="M563.636,669.481l.073,2.983,1.305,1.545-1.437,1.091-.367,2.911-.961-2.309-1.532.254.843-2.518-.58-2.753,1.482.753Z"/><path class="x" d="M571.18,666.614l.043,1.747.765.9-.841.639-.215,1.7-.563-1.352-.9.149.493-1.475-.34-1.613.868.441Z"/><path class="x" d="M559.045,681.776l.043,1.747.765.9-.841.639-.215,1.7-.563-1.352-.9.149.494-1.475-.34-1.613.868.441Z"/><path class="x" d="M557.009,665.061l.043,1.747.765.9-.841.639-.215,1.7L556.2,668.7l-.9.149.494-1.475-.34-1.613.868.441Z"/><path class="x" d="M574.539,635.394l.043,1.747.765.9-.841.639-.215,1.7-.563-1.352-.9.149.494-1.475-.34-1.613.868.441Z"/><path class="x" d="M559.079,651.2l1.1,3.3,2.031.069-1.283,3.1.571,3.781-1.9-1.382-1.678,2.268.112-3.95L556.43,656l1.964-1.059Z"/><path class="x" d="M572.694,655.087l1.926,1.219,1.627-2.407-.023,3.953,1.661,2.239-1.94,1.225-.6,3.791-1.176-3.2-2.032.1,1.213-3.2Z"/><path class="x" d="M577.461,670.96l1.1,3.3,2.031.069-1.283,3.1.571,3.781-1.9-1.382-1.678,2.268.112-3.95-1.608-2.379,1.964-1.059Z"/><path class="p" d="M547.909,641.2l31.212-10.974,3.808,51.2L552.909,693.65Z"/><path class="x" d="M494.185,641.253l27.867-11.2h56.667l-30.81,10.812Z"/><path class="n" d="M572.552,685.779l-3.583-52.728h-55.25l-5.218,2.714,50.468,1.377,6.45,51.245Z"/><path class="n" d="M549.552,630.052,523.637,640.8l3.082,52.249h-8l-5.5-52.088,29-10.912Z"/><g class="y"><path class="f" d="M572.552,685.779l-3.583-52.728h-55.25l-5.218,2.714,50.468,1.377,6.45,51.245Z"/><path class="f" d="M549.552,630.052,523.637,640.8l3.082,52.249h-8l-5.5-52.088,29-10.912Z"/></g><path class="p" d="M568.969,633.507l-10,3.75,6.45,51.3,7.134-2.552Z"/><path class="z" d="M513.219,641.191l10.417-.274,3.082,52.135h-8Z"/><path class="n" d="M533,634.14s-15.024-11.334-21.524-8.5c-5.15,2.245-4.4,8.954,8.638,10.663-4.89.442-10.689,1.215-14.144,2.537l9.834,1.167a112.765,112.765,0,0,1,18-3.38,7.729,7.729,0,0,1,0,3.38l6.724-.584s-1.986-1.892-3.6-3.284c7.706-.765,24.224-3.241,25.879-10.5C564.975,616.14,541.19,622.473,533,634.14Zm-21.524-6.584c1.584-2.5,20.583,7.417,20.583,7.417C523.14,636.219,509.892,630.056,511.475,627.556Zm23.233,7s20.35-14.583,25.267-11.333S540.857,635.14,534.708,634.556Z"/><path class="aa" d="M533,634.14s-15.024-11.334-21.524-8.5c-5.15,2.245-4.4,8.954,8.638,10.663-4.89.442-10.689,1.215-14.144,2.537l9.834,1.167a112.765,112.765,0,0,1,18-3.38,7.729,7.729,0,0,1,0,3.38l6.724-.584s-1.986-1.892-3.6-3.284c7.706-.765,24.224-3.241,25.879-10.5C564.975,616.14,541.19,622.473,533,634.14Zm-21.524-6.584c1.584-2.5,20.583,7.417,20.583,7.417C523.14,636.219,509.892,630.056,511.475,627.556Zm23.233,7s20.35-14.583,25.267-11.333S540.857,635.14,534.708,634.556Z"/><path class="p" d="M632.709,624.317c-1.06,10.69-2.37,24.77-3.33,38.22-22.28-25.75-6.34-44.67-6.34-44.67Z"/><path class="n" d="M598.095,602.462s-.2,5.711,7.294,6.045,17.55-4.29,17.55-4.29S608.637,601.085,598.095,602.462Z"/><path class="u" d="M619.017,603.672c-3.95,3.589-13.628,2.262-13.628,2.262s-6.041-1.653-4.772-3.541c3.558-.588,5.281-2.248,5.992-4.373a10.327,10.327,0,0,0,.361-4.064,21.482,21.482,0,0,0-.3-2.269l11.965-8.86C617.068,588.675,615.149,599.433,619.017,603.672Z"/><path class="p" d="M615.872,588.459c-.475,7.178-6.375,9.159-9.263,9.561a10.327,10.327,0,0,0,.361-4.064Z"/><path class="l" d="M595.226,565.767s-1.7,11.174,4.232,15.472,5.931-16.5,5.931-16.5Z"/><path class="u" d="M616.676,590.119a10.143,10.143,0,0,1-11.645,3.93,11.293,11.293,0,0,1-6.446-5.25,11.422,11.422,0,0,1-.537-1.073c-2.919-6.828-3.847-18.772,3.373-23.248a11,11,0,0,1,16.792,8.282C619.1,580.743,620,585.4,616.676,590.119Z"/><path class="l" d="M606.575,577.094c.154.631-.137,1.222-.566,1.294s-.85-.4-.964-1.038.148-1.225.566-1.295S606.459,576.443,606.575,577.094Z"/><path class="l" d="M599.288,578.338c.154.631-.148,1.225-.566,1.295s-.851-.4-.964-1.039.147-1.225.565-1.295S599.181,577.727,599.288,578.338Z"/><path class="ab" d="M601.657,578.26a23.254,23.254,0,0,1-2.138,6.041,3.79,3.79,0,0,0,3.2.049Z"/><path class="l" d="M608.433,574.348a.4.4,0,0,1-.392-.085,3.1,3.1,0,0,0-2.64-.854.381.381,0,0,1-.182-.741h0a3.806,3.806,0,0,1,3.341,1.033.382.382,0,0,1,.033.539l-.006.006A.616.616,0,0,1,608.433,574.348Z"/><path class="l" d="M604.333,587.509h0a5.891,5.891,0,0,0,4.776-2.6.208.208,0,0,0-.072-.279.2.2,0,0,0-.271.06l-.008.013a5.643,5.643,0,0,1-4.445,2.393.194.194,0,0,0-.2.194v.022a.2.2,0,0,0,.2.2Z"/><path class="l" d="M595.727,576.36a.37.37,0,0,1-.22.054.382.382,0,0,1-.267-.469l0-.008a3.81,3.81,0,0,1,2.362-2.593.382.382,0,0,1,.476.255h0a.39.39,0,0,1-.255.476h0a3.1,3.1,0,0,0-1.839,2.083A.388.388,0,0,1,595.727,576.36Z"/><path class="l" d="M610.718,563.944v3.567a2.639,2.639,0,0,1,1.719,3.138c-.774,3.094,1.463,7.473,3.954,9.025,0,0-.086-1.29,1.031-1.118s1.633,6.876-.086,10.314c0,0,2.836-3.266,3.782-10.486.874-6.677.423-12.1-1.213-14.44Z"/><path class="n" d="M622.859,576.767a20.75,20.75,0,0,0-7.11-6.52c-4.79-2.76-12.15-4.66-22.53-1.41,0,0,3.75-18.16,20.08-12,.14.05.27.1.4.16C629.529,563.237,622.859,576.767,622.859,576.767Z"/><path class="x" d="M615.749,570.247c-4.79-2.76-12.15-4.66-22.53-1.41,0,0,3.75-18.16,20.08-12,.14.05.27.1.4.16a7.029,7.029,0,0,1,2.44,2.13C617.589,561.407,616.529,567.057,615.749,570.247Z"/><path class="n" d="M595.006,569.8c-2.191.444-9.412-4.605-6.537-6.9,2.31-1.84,8.793-2.385,13.875-1.21,9.438,2.182,13.542,8.479,13.542,8.479S603.84,566.3,595.006,569.8Z"/><path class="p" d="M595.006,569.8c-2.191.444-9.412-4.605-6.537-6.9,2.31-1.84,8.793-2.385,13.875-1.21,9.438,2.182,13.542,8.479,13.542,8.479S603.84,566.3,595.006,569.8Z"/><path class="u" d="M622.78,578.729a7.647,7.647,0,0,1-3.668,4.546c-2.36,1.268-4.125-.705-3.965-3.241.164-2.252,1.565-5.7,4.18-5.893S623.452,576.337,622.78,578.729Z"/><path class="n" d="M588.529,626.056l-2.682,18.7,5-.107-.652,8.545-4.837-.133-1.5,3.465,8.508.835,5.6-30.42Zm1.232,14.616,2.456-9.933,1.753.147-1.71,9.732Z"/><path class="n" d="M601.741,627l-2.688,18.475,5-.107-.647,8.769-4.834-.021-1.5,3.521,8.508.863,5.6-30.518Zm1.226,14.391,2.461-9.708,1.751.034-1.712,9.62Z"/><path class="u" d="M635.34,629.016s-8.551,23.589-11.086,28.54-52.326,9.826-52.326,9.826-11.042,7.125-12.959,6.791-6.583-9.666-4.583-10.666,8.083-7.886,11.375-7.777,6.167,3.777,6.167,3.777,41.017-11.756,43.209-12.624c1.582-.626,8.057-23.468,8.057-23.468Z"/><path class="n" d="M634.584,606.433c10.218,4.3,0,33.694,0,33.694l-15.567-6.62S624.116,602.026,634.584,606.433Z"/><path class="v" d="M634.584,606.433c10.218,4.3,0,33.694,0,33.694l-15.567-6.62S624.116,602.026,634.584,606.433Z"/><path class="n" d="M618.219,631.145l18.25,7.892-1.885,3.97-17.365-7.869Z"/></g><path class="ac" d="M712.734,4069.5s-50.644,8.652-46.008,26.145,163.221-37.686,224.861-83.084"/><path class="ac" d="M975.732,3969.506c25.549-11.262,49.152-20.238,64.236-24.217,65.8-15.008-12.3,40.535-12.3,40.535"/></g></svg>