<svg xmlns="http://www.w3.org/2000/svg" width="28" height="28" viewBox="0 0 28 28"><defs><style>.a{fill:#2d6dcd;}.b{fill:#fff;}</style></defs><g transform="translate(-626 -977)"><circle class="a" cx="14" cy="14" r="14" transform="translate(626 977)"/><path class="b" d="M6.849,18.462,12.113,13.2a.925.925,0,0,0,0-1.312l-.875-.875a.925.925,0,0,0-1.312,0L6.191,14.738,2.46,11.007a.925.925,0,0,0-1.312,0l-.879.875a.925.925,0,0,0,0,1.312l5.264,5.264A.926.926,0,0,0,6.849,18.462Z" transform="translate(634.004 977.266)"/></g></svg>