<svg xmlns="http://www.w3.org/2000/svg" xmlns:xlink="http://www.w3.org/1999/xlink" width="186.31" height="176.238" viewBox="0 0 186.31 176.238"><defs><style>.a{fill:#fff;}.b{clip-path:url(#a);}.c{fill:#3f3d56;}.d{fill:#d4c7e8;opacity:0.6;}.e{fill:#fdb105;}.f{fill:#7742c8;}.g{fill:#fa3c64;}.h{fill:#302c5a;}.i{fill:#18184b;}</style><clipPath id="a"><path class="a" d="M65.6-44.521c60.086-.3,102.395,74.346,102.395,112.027s-63.146,61.329-99.588,64.04-86.723-27.21-86.723-64.891S5.514-44.224,65.6-44.521Z" transform="translate(942 3476)"/></clipPath></defs><g class="b" transform="translate(-923.685 -3431.478)"><g transform="translate(939.641 3484.284)"><rect class="c" width="138.983" height="93.375" rx="2.362" transform="translate(0 0)"/><path class="a" d="M-19.07,125.659v80.5a2.707,2.707,0,0,1-2.709,2.708h-126.2a2.6,2.6,0,0,1-.938-.172,2.7,2.7,0,0,1-1.765-2.536v-80.5a2.706,2.706,0,0,1,2.7-2.709h126.2a2.658,2.658,0,0,1,1.023.2A2.706,2.706,0,0,1-19.07,125.659Z" transform="translate(154.367 -119.219)"/><g transform="translate(3.686 3.732)"><path class="d" d="M-19.07,125.658v4.007H-150.681v-4.007a2.705,2.705,0,0,1,2.707-2.707h126.2A2.706,2.706,0,0,1-19.07,125.658Z" transform="translate(150.681 -122.951)"/><g transform="translate(113.791 2.042)"><circle class="e" cx="1.315" cy="1.315" r="1.315" transform="translate(4.865 0)"/><path class="f" d="M-47.285,126.073a1.316,1.316,0,0,1-1.314,1.316,1.316,1.316,0,0,1-1.316-1.316,1.315,1.315,0,0,1,1.316-1.314A1.315,1.315,0,0,1-47.285,126.073Z" transform="translate(49.915 -124.759)"/><path class="g" d="M-38.669,126.073a1.315,1.315,0,0,1-1.314,1.316,1.316,1.316,0,0,1-1.316-1.316,1.315,1.315,0,0,1,1.316-1.314A1.314,1.314,0,0,1-38.669,126.073Z" transform="translate(51.029 -124.759)"/></g></g><rect class="h" width="28.509" height="25.172" transform="translate(53.919 93.375)"/><path class="c" d="M7.638,0H53.6a7.638,7.638,0,0,1,7.638,7.638v.987a0,0,0,0,1,0,0H0a0,0,0,0,1,0,0V7.638A7.638,7.638,0,0,1,7.638,0Z" transform="translate(37.554 115.237)"/><g transform="translate(93.29 93.375)"><path class="i" d="M0,0H8.316a0,0,0,0,1,0,0V.184A1.425,1.425,0,0,1,6.89,1.61H1.425A1.425,1.425,0,0,1,0,.184V0A0,0,0,0,1,0,0Z" transform="translate(12.753)"/><path class="i" d="M0,0H8.316a0,0,0,0,1,0,0V.184A1.425,1.425,0,0,1,6.89,1.61H1.425A1.425,1.425,0,0,1,0,.184V0A0,0,0,0,1,0,0Z" transform="translate(25.506)"/><path class="i" d="M0,0H8.316a0,0,0,0,1,0,0V.184A1.425,1.425,0,0,1,6.89,1.61H1.425A1.425,1.425,0,0,1,0,.184V0A0,0,0,0,1,0,0Z"/></g></g></g></svg>