<svg xmlns="http://www.w3.org/2000/svg" xmlns:xlink="http://www.w3.org/1999/xlink" width="140.479" height="217.735" viewBox="0 0 140.479 217.735"><defs><style>.a,.d{fill:#fff;}.a{stroke:#707070;}.b{clip-path:url(#a);}.c{fill:#3f3d56;}.e{fill:#e6e6e6;}.f{fill:#2d6dcd;}</style><clipPath id="a"><path class="a" d="M55.138-95.7C159.982-98.208,122,27.311,122,61A61,61,0,0,1,0,61C0,27.311-49.706-93.188,55.138-95.7Z" transform="translate(226 3498)"/></clipPath></defs><g class="b" transform="translate(-214.226 -3402.265)"><g transform="translate(46 3451)"><path class="c" d="M616.023,129.023H614.96V99.9A16.857,16.857,0,0,0,598.1,83.041H536.4A16.857,16.857,0,0,0,519.539,99.9V259.684A16.857,16.857,0,0,0,536.4,276.541H598.1a16.857,16.857,0,0,0,16.857-16.857V149.756h1.063Z" transform="translate(-326.482 -83.041)"/><path class="d" d="M611.622,99.534h-8.055a5.981,5.981,0,0,1-5.538,8.241H562.678a5.981,5.981,0,0,1-5.537-8.24h-7.525a12.589,12.589,0,0,0-12.589,12.589h0V271.675a12.589,12.589,0,0,0,12.589,12.589h62a12.589,12.589,0,0,0,12.589-12.589h0V112.123a12.589,12.589,0,0,0-12.589-12.589Z" transform="translate(-339.321 -95.149)"/><circle class="e" cx="6.913" cy="6.913" r="6.913" transform="translate(234.492 161.055)"/><g transform="translate(203.078 87.862)"><rect class="e" width="76.438" height="15.092"/><path class="d" d="M563.358,431.466h73.179V419.634H563.358Z" transform="translate(-561.729 -418.003)"/><path class="f" d="M575.005,424.559a4.508,4.508,0,1,1-4.508,4.508A4.508,4.508,0,0,1,575.005,424.559Z" transform="translate(-566.97 -421.619)"/><rect class="e" width="44.491" height="0.98" transform="translate(18.815 5.684)"/><rect class="e" width="44.491" height="0.98" transform="translate(18.815 8.232)"/></g><g transform="translate(203.078 109.399)"><rect class="e" width="76.438" height="15.092"/><path class="d" d="M563.358,512.466h73.179V500.634H563.358Z" transform="translate(-561.729 -499.003)"/><circle class="f" cx="4.508" cy="4.508" r="4.508" transform="translate(3.528 2.94)"/><rect class="e" width="44.491" height="0.98" transform="translate(18.815 5.684)"/><rect class="e" width="44.491" height="0.98" transform="translate(18.815 8.232)"/></g><g transform="translate(203.078 130.935)"><rect class="e" width="76.438" height="15.092"/><path class="d" d="M563.358,593.466h73.179V581.634H563.358Z" transform="translate(-561.729 -580.003)"/><circle class="f" cx="4.508" cy="4.508" r="4.508" transform="translate(3.528 2.94)"/><rect class="e" width="44.491" height="0.98" transform="translate(18.815 5.684)"/><rect class="e" width="44.491" height="0.98" transform="translate(18.815 8.232)"/></g><circle class="f" cx="21.27" cy="21.27" r="21.27" transform="translate(220.027 30.288)"/><path class="d" d="M678.129,243.388h-17.04a2.843,2.843,0,0,0-2.84,2.84V258.4a2.843,2.843,0,0,0,2.84,2.84h17.04a2.843,2.843,0,0,0,2.84-2.84V246.228A2.843,2.843,0,0,0,678.129,243.388Zm0,1.623a1.211,1.211,0,0,1,.3.039l-8.82,7.035-8.768-7.05a1.218,1.218,0,0,1,.246-.025Zm0,14.606h-17.04a1.219,1.219,0,0,1-1.217-1.217V246.337l9.229,7.42a.811.811,0,0,0,1.014,0l9.231-7.364v12A1.219,1.219,0,0,1,678.129,259.617Z" transform="translate(-428.312 -200.755)"/></g></g></svg>