<svg xmlns="http://www.w3.org/2000/svg" xmlns:xlink="http://www.w3.org/1999/xlink" width="25.384" height="21.514" viewBox="0 0 25.384 21.514"><defs><style>.a{fill:url(#a);}.b{fill:url(#b);}.c{fill:url(#d);}.d{fill:url(#e);}</style><linearGradient id="a" x1="0.931" y1="0.5" x2="0" y2="0.5" gradientUnits="objectBoundingBox"><stop offset="0" stop-color="#fff" stop-opacity="0.596"/><stop offset="1" stop-color="#fff"/></linearGradient><linearGradient id="b" x1="0.931" y1="0.5" x2="0" y2="0.5" gradientUnits="objectBoundingBox"><stop offset="0" stop-color="#fff" stop-opacity="0.6"/><stop offset="1" stop-color="#fff"/></linearGradient><linearGradient id="d" x1="0.931" y1="0.5" x2="0.003" y2="0.5" gradientUnits="objectBoundingBox"><stop offset="0" stop-color="#fff"/><stop offset="1" stop-color="#fff" stop-opacity="0.6"/></linearGradient><linearGradient id="e" x1="1" y1="0.5" x2="0" y2="0.5" gradientUnits="objectBoundingBox"><stop offset="0" stop-color="#fff"/><stop offset="0.497" stop-color="#fff" stop-opacity="0.561"/><stop offset="1" stop-color="#fff"/></linearGradient></defs><g transform="translate(0 0)"><g transform="translate(1.935 5.101)"><path class="a" d="M5.673,11.346A5.673,5.673,0,1,0,0,5.673,5.673,5.673,0,0,0,5.673,11.346Zm0-1.161a4.512,4.512,0,1,1,4.512-4.512A4.512,4.512,0,0,1,5.673,10.185Z" transform="translate(0 0)"/><path class="b" d="M5.673,0A5.673,5.673,0,1,1,0,5.673,5.673,5.673,0,0,1,5.673,0Zm0,1.161a4.512,4.512,0,1,0,4.512,4.512A4.512,4.512,0,0,0,5.673,1.161Z" transform="translate(21.514 11.346) rotate(180)"/></g><g transform="translate(7.001)"><path class="b" d="M5.673,11.346A5.673,5.673,0,1,0,0,5.673,5.673,5.673,0,0,0,5.673,11.346Zm0-1.161a4.512,4.512,0,1,1,4.512-4.512A4.512,4.512,0,0,1,5.673,10.185Z" transform="translate(11.346) rotate(90)"/><path class="c" d="M5.673,0A5.673,5.673,0,1,1,0,5.673,5.673,5.673,0,0,1,5.673,0Zm0,1.161a4.512,4.512,0,1,0,4.512,4.512A4.512,4.512,0,0,0,5.673,1.161Z" transform="translate(11.346 10.168) rotate(90)"/></g><rect class="d" width="25.384" height="1.161" transform="translate(0 10.168)"/></g></svg>