<svg xmlns="http://www.w3.org/2000/svg" xmlns:xlink="http://www.w3.org/1999/xlink" width="47.924" height="40.617" viewBox="0 0 47.924 40.617"><defs><style>.a{fill:url(#a);}.b{fill:url(#b);}.c{fill:url(#d);}.d{fill:url(#e);}</style><linearGradient id="a" x1="0.931" y1="0.5" x2="0" y2="0.5" gradientUnits="objectBoundingBox"><stop offset="0" stop-color="#fff" stop-opacity="0.596"/><stop offset="1" stop-color="#fff"/></linearGradient><linearGradient id="b" x1="0.931" y1="0.5" x2="0" y2="0.5" gradientUnits="objectBoundingBox"><stop offset="0" stop-color="#fff" stop-opacity="0.6"/><stop offset="1" stop-color="#fff"/></linearGradient><linearGradient id="d" x1="0.931" y1="0.5" x2="0.003" y2="0.5" gradientUnits="objectBoundingBox"><stop offset="0" stop-color="#fff"/><stop offset="1" stop-color="#fff" stop-opacity="0.6"/></linearGradient><linearGradient id="e" x1="1" y1="0.5" x2="0" y2="0.5" gradientUnits="objectBoundingBox"><stop offset="0" stop-color="#fff"/><stop offset="0.497" stop-color="#fff" stop-opacity="0.561"/><stop offset="1" stop-color="#fff"/></linearGradient></defs><g transform="translate(0 0)"><g transform="translate(3.653 9.631)"><path class="a" d="M10.711,21.421A10.711,10.711,0,1,0,0,10.711,10.711,10.711,0,0,0,10.711,21.421Zm0-2.192a8.519,8.519,0,1,1,8.519-8.519A8.519,8.519,0,0,1,10.711,19.229Z" transform="translate(0 0)"/><path class="b" d="M10.711,0A10.711,10.711,0,1,1,0,10.711,10.711,10.711,0,0,1,10.711,0Zm0,2.192a8.519,8.519,0,1,0,8.519,8.519A8.519,8.519,0,0,0,10.711,2.192Z" transform="translate(40.617 21.421) rotate(180)"/></g><g transform="translate(13.218)"><path class="b" d="M10.711,21.421A10.711,10.711,0,1,0,0,10.711,10.711,10.711,0,0,0,10.711,21.421Zm0-2.192a8.519,8.519,0,1,1,8.519-8.519A8.519,8.519,0,0,1,10.711,19.229Z" transform="translate(21.421) rotate(90)"/><path class="c" d="M10.711,0A10.711,10.711,0,1,1,0,10.711,10.711,10.711,0,0,1,10.711,0Zm0,2.192a8.519,8.519,0,1,0,8.519,8.519A8.519,8.519,0,0,0,10.711,2.192Z" transform="translate(21.421 19.196) rotate(90)"/></g><rect class="d" width="47.924" height="2.192" transform="translate(0 19.196)"/></g></svg>