<svg xmlns="http://www.w3.org/2000/svg" xmlns:xlink="http://www.w3.org/1999/xlink" width="15.42" height="13.069" viewBox="0 0 15.42 13.069"><defs><style>.a{fill:url(#a);}.b{fill:url(#b);}.c{fill:url(#d);}.d{fill:url(#e);}</style><linearGradient id="a" x1="0.931" y1="0.5" x2="0" y2="0.5" gradientUnits="objectBoundingBox"><stop offset="0" stop-color="#fff" stop-opacity="0.596"/><stop offset="1" stop-color="#fff"/></linearGradient><linearGradient id="b" x1="0.931" y1="0.5" x2="0" y2="0.5" gradientUnits="objectBoundingBox"><stop offset="0" stop-color="#fff" stop-opacity="0.6"/><stop offset="1" stop-color="#fff"/></linearGradient><linearGradient id="d" x1="0.931" y1="0.5" x2="0.003" y2="0.5" gradientUnits="objectBoundingBox"><stop offset="0" stop-color="#fff"/><stop offset="1" stop-color="#fff" stop-opacity="0.6"/></linearGradient><linearGradient id="e" x1="1" y1="0.5" x2="0" y2="0.5" gradientUnits="objectBoundingBox"><stop offset="0" stop-color="#fff"/><stop offset="0.497" stop-color="#fff" stop-opacity="0.561"/><stop offset="1" stop-color="#fff"/></linearGradient></defs><g transform="translate(0 0)"><g transform="translate(1.175 3.099)"><path class="a" d="M3.446,6.892A3.446,3.446,0,1,0,0,3.446,3.446,3.446,0,0,0,3.446,6.892Zm0-.705A2.741,2.741,0,1,1,6.187,3.446,2.741,2.741,0,0,1,3.446,6.187Z" transform="translate(0 0)"/><path class="b" d="M3.446,0A3.446,3.446,0,1,1,0,3.446,3.446,3.446,0,0,1,3.446,0Zm0,.705A2.741,2.741,0,1,0,6.187,3.446,2.741,2.741,0,0,0,3.446.705Z" transform="translate(13.069 6.892) rotate(180)"/></g><g transform="translate(4.253)"><path class="b" d="M3.446,6.892A3.446,3.446,0,1,0,0,3.446,3.446,3.446,0,0,0,3.446,6.892Zm0-.705A2.741,2.741,0,1,1,6.187,3.446,2.741,2.741,0,0,1,3.446,6.187Z" transform="translate(6.892) rotate(90)"/><path class="c" d="M3.446,0A3.446,3.446,0,1,1,0,3.446,3.446,3.446,0,0,1,3.446,0Zm0,.705A2.741,2.741,0,1,0,6.187,3.446,2.741,2.741,0,0,0,3.446.705Z" transform="translate(6.892 6.176) rotate(90)"/></g><rect class="d" width="15.42" height="0.705" transform="translate(0 6.176)"/></g></svg>