<svg xmlns="http://www.w3.org/2000/svg" xmlns:xlink="http://www.w3.org/1999/xlink" width="168" height="168" viewBox="0 0 168 168"><defs><style>.a{fill:none;}.b,.c{stroke:none;}.c{fill:#fff;}.d{filter:url(#a);}</style><filter id="a" x="0" y="0" width="168" height="168" filterUnits="userSpaceOnUse"><feOffset dy="-6" input="SourceAlpha"/><feGaussianBlur stdDeviation="3" result="b"/><feFlood flood-opacity="0.294"/><feComposite operator="in" in2="b"/><feComposite in="SourceGraphic"/></filter></defs><g class="d" transform="matrix(1, 0, 0, 1, 0, 0)"><g class="a" transform="translate(9 15)"><path class="b" d="M75,0A75,75,0,1,1,0,75,75,75,0,0,1,75,0Z"/><path class="c" d="M 75 8 C 38.05607604980469 8 8 38.05607604980469 8 75 C 8 111.9439239501953 38.05607604980469 142 75 142 C 111.9439239501953 142 142 111.9439239501953 142 75 C 142 38.05607604980469 111.9439239501953 8 75 8 M 75 0 C 116.4213409423828 0 150 33.57862854003906 150 75 C 150 116.4213409423828 116.4213409423828 150 75 150 C 33.57862854003906 150 0 116.4213409423828 0 75 C 0 33.57862854003906 33.57862854003906 0 75 0 Z"/></g></g></svg>